<svg width="19" height="19" viewBox="0 0 19 19" fill="none" xmlns="http://www.w3.org/2000/svg">
<path fill-rule="evenodd" clip-rule="evenodd" d="M12.9523 3.37054C12.3285 2.75369 11.5864 2.26458 10.7689 1.93153C9.95141 1.59849 9.07477 1.42814 8.18977 1.43035C4.47877 1.43035 1.45777 4.39775 1.45627 8.04528C1.45627 9.21101 1.76602 10.3487 2.35477 11.3524L1.40002 14.7796L4.96927 13.8592C5.95657 14.3873 7.06267 14.6641 8.18677 14.6646H8.18977C11.9 14.6646 14.921 11.6972 14.9225 8.0497C14.9251 7.18054 14.7523 6.31951 14.4141 5.51637C14.0759 4.71322 13.5791 3.9839 12.9523 3.37054ZM8.18977 13.5483H8.18752C7.18516 13.5484 6.20125 13.2834 5.33902 12.7812L5.13502 12.6618L3.01702 13.2078L3.58177 11.1792L3.44902 10.9714C2.88862 10.0948 2.59195 9.08043 2.59327 8.04528C2.59477 5.01377 5.10502 2.54745 8.19202 2.54745C8.92721 2.54585 9.65542 2.68752 10.3345 2.96427C11.0136 3.24101 11.6301 3.64734 12.1483 4.15973C12.6692 4.66968 13.0822 5.27602 13.3632 5.94371C13.6442 6.61139 13.7878 7.32718 13.7855 8.0497C13.784 11.0812 11.2738 13.5483 8.18977 13.5483ZM11.2595 9.42986C11.0908 9.3466 10.2643 8.94721 10.1098 8.89195C9.95602 8.83668 9.84427 8.80942 9.73177 8.97448C9.61927 9.13954 9.29677 9.51166 9.19852 9.62219C9.10027 9.73272 9.00202 9.74598 8.83402 9.66345C8.66602 9.58092 8.12377 9.40628 7.48102 8.84331C6.98077 8.40487 6.64327 7.864 6.54502 7.69821C6.44677 7.53241 6.53452 7.44325 6.61927 7.36072C6.69502 7.28703 6.78727 7.16766 6.87127 7.07113C6.95527 6.9746 6.98302 6.90607 7.03927 6.79554C7.09552 6.68501 7.06777 6.58847 7.02502 6.50594C6.98302 6.42268 6.64627 5.60917 6.50602 5.27831C6.37027 4.95777 6.23152 5.00051 6.12802 4.99609C6.02083 4.99178 5.91356 4.98981 5.80627 4.99019C5.72097 4.99233 5.63703 5.01176 5.55972 5.04726C5.48241 5.08277 5.41341 5.13358 5.35702 5.19652C5.20252 5.36231 4.76827 5.7617 4.76827 6.57521C4.76827 7.38872 5.37127 8.17497 5.45527 8.2855C5.53927 8.39603 6.64177 10.0651 8.32927 10.7813C8.73127 10.9515 9.04477 11.0532 9.28852 11.1298C9.69127 11.2558 10.058 11.2374 10.3483 11.1954C10.6715 11.1483 11.3435 10.796 11.4838 10.4099C11.624 10.0238 11.624 9.69293 11.582 9.62366C11.54 9.5544 11.4268 9.51239 11.2595 9.42986Z" fill="#851D41"/>
</svg>
