<svg width="30" height="30" viewBox="0 0 30 30" fill="none" xmlns="http://www.w3.org/2000/svg">
<path d="M19.5 14.88C19.5 16.0526 19.0259 17.1771 18.182 18.0063C17.338 18.8354 16.1934 19.3012 15 19.3012C13.8065 19.3012 12.6619 18.8354 11.818 18.0063C10.9741 17.1771 10.5 16.0526 10.5 14.88C10.5 14.628 10.527 14.3819 10.5735 14.1431H8.99998V20.0337C8.99998 20.4434 9.33747 20.775 9.75447 20.775H20.247C20.4468 20.7746 20.6383 20.6963 20.7795 20.5574C20.9207 20.4184 21 20.23 21 20.0337V14.1431H19.4265C19.473 14.3819 19.5 14.628 19.5 14.88ZM15 17.8275C15.394 17.8274 15.7842 17.751 16.1483 17.6028C16.5123 17.4545 16.843 17.2373 17.1216 16.9635C17.4002 16.6896 17.6211 16.3646 17.7718 16.0068C17.9226 15.6491 18.0001 15.2657 18 14.8785C17.9999 14.4914 17.9222 14.108 17.7713 13.7503C17.6204 13.3927 17.3993 13.0677 17.1205 12.794C16.8418 12.5203 16.511 12.3032 16.1469 12.1552C15.7828 12.0071 15.3925 11.9309 14.9985 11.931C14.2026 11.9312 13.4395 12.242 12.8768 12.7951C12.3142 13.3481 11.9983 14.0981 11.9985 14.88C11.9987 15.6619 12.315 16.4117 12.8779 16.9645C13.4408 17.5173 14.2041 17.8277 15 17.8275ZM18.6 11.7851H20.3985C20.518 11.7851 20.6326 11.7386 20.7172 11.6557C20.8018 11.5728 20.8496 11.4604 20.85 11.343V9.57597C20.85 9.45832 20.8024 9.34549 20.7177 9.2623C20.6331 9.17911 20.5182 9.13237 20.3985 9.13237H18.6C18.4802 9.13237 18.3654 9.17911 18.2807 9.2623C18.196 9.34549 18.1485 9.45832 18.1485 9.57597V11.343C18.15 11.5862 18.3525 11.7851 18.6 11.7851ZM15 0.731995C11.1809 0.731995 7.51816 2.22258 4.81764 4.87585C2.11711 7.52911 0.599976 11.1277 0.599976 14.88C0.599976 18.6323 2.11711 22.2309 4.81764 24.8841C7.51816 27.5374 11.1809 29.028 15 29.028C16.891 29.028 18.7635 28.662 20.5106 27.951C22.2577 27.24 23.8451 26.1979 25.1823 24.8841C26.5195 23.5704 27.5802 22.0107 28.3038 20.2942C29.0275 18.5777 29.4 16.7379 29.4 14.88C29.4 13.0221 29.0275 11.1823 28.3038 9.46579C27.5802 7.74927 26.5195 6.18961 25.1823 4.87585C23.8451 3.56208 22.2577 2.51995 20.5106 1.80895C18.7635 1.09794 16.891 0.731995 15 0.731995ZM22.5 20.6114C22.5 21.5119 21.75 22.2487 20.8335 22.2487H9.16648C8.24998 22.2487 7.49998 21.5119 7.49998 20.6114V9.14858C7.49998 8.24812 8.24998 7.51124 9.16648 7.51124H20.8335C21.75 7.51124 22.5 8.24812 22.5 9.14858V20.6114Z" fill="#F5F5F5"/>
</svg>
