<svg width="30" height="30" viewBox="0 0 30 30" fill="none" xmlns="http://www.w3.org/2000/svg">
<ellipse cx="15" cy="14.915" rx="15" ry="14.7375" fill="#F5F5F5"/>
<path fill-rule="evenodd" clip-rule="evenodd" d="M19.9523 10.3705C19.3285 9.75369 18.5864 9.26458 17.7689 8.93153C16.9514 8.59849 16.0748 8.42814 15.1898 8.43035C11.4788 8.43035 8.45777 11.3977 8.45627 15.0453C8.45627 16.211 8.76602 17.3487 9.35477 18.3524L8.40002 21.7796L11.9693 20.8592C12.9566 21.3873 14.0627 21.6641 15.1868 21.6646H15.1898C18.9 21.6646 21.921 18.6972 21.9225 15.0497C21.9251 14.1805 21.7523 13.3195 21.4141 12.5164C21.0759 11.7132 20.5791 10.9839 19.9523 10.3705ZM15.1898 20.5483H15.1875C14.1852 20.5484 13.2012 20.2834 12.339 19.7812L12.135 19.6618L10.017 20.2078L10.5818 18.1792L10.449 17.9714C9.88862 17.0948 9.59195 16.0804 9.59327 15.0453C9.59477 12.0138 12.105 9.54745 15.192 9.54745C15.9272 9.54585 16.6554 9.68752 17.3345 9.96427C18.0136 10.241 18.6301 10.6473 19.1483 11.1597C19.6692 11.6697 20.0822 12.276 20.3632 12.9437C20.6442 13.6114 20.7878 14.3272 20.7855 15.0497C20.784 18.0812 18.2738 20.5483 15.1898 20.5483ZM18.2595 16.4299C18.0908 16.3466 17.2643 15.9472 17.1098 15.8919C16.956 15.8367 16.8443 15.8094 16.7318 15.9745C16.6193 16.1395 16.2968 16.5117 16.1985 16.6222C16.1003 16.7327 16.002 16.746 15.834 16.6635C15.666 16.5809 15.1238 16.4063 14.481 15.8433C13.9808 15.4049 13.6433 14.864 13.545 14.6982C13.4468 14.5324 13.5345 14.4432 13.6193 14.3607C13.695 14.287 13.7873 14.1677 13.8713 14.0711C13.9553 13.9746 13.983 13.9061 14.0393 13.7955C14.0955 13.685 14.0678 13.5885 14.025 13.5059C13.983 13.4227 13.6463 12.6092 13.506 12.2783C13.3703 11.9578 13.2315 12.0005 13.128 11.9961C13.0208 11.9918 12.9136 11.9898 12.8063 11.9902C12.721 11.9923 12.637 12.0118 12.5597 12.0473C12.4824 12.0828 12.4134 12.1336 12.357 12.1965C12.2025 12.3623 11.7683 12.7617 11.7683 13.5752C11.7683 14.3887 12.3713 15.175 12.4553 15.2855C12.5393 15.396 13.6418 17.0651 15.3293 17.7813C15.7313 17.9515 16.0448 18.0532 16.2885 18.1298C16.6913 18.2558 17.058 18.2374 17.3483 18.1954C17.6715 18.1483 18.3435 17.796 18.4838 17.4099C18.624 17.0238 18.624 16.6929 18.582 16.6237C18.54 16.5544 18.4268 16.5124 18.2595 16.4299Z" fill="#851D41"/>
</svg>
